<svg xmlns="http://www.w3.org/2000/svg" viewBox="0 0 1200 800"><g id="fbd1f8dd-8a7c-4b23-aee4-4ac0bcc2885c" data-name="Layer 2"><g id="e02d6ade-258a-42ad-842f-553942c8512e" data-name="Layer 1"><path d="M1100,0a100,100,0,0,1,0,200H1000V100A100,100,0,0,1,1100,0Z" style="fill:#16a3b2;fill-rule:evenodd"/><rect x="400" width="200" height="200" style="fill:#111747"/><rect x="200" y="200" width="200" height="200" style="fill:#ffc641"/><rect x="200" y="400" width="200" height="200" style="fill:#fff"/><path d="M600,600V700a100,100,0,0,1-200,0V600Z" style="fill:#fe5e33;fill-rule:evenodd"/><path d="M600,200H400a100,100,0,0,1,200,0Z" style="fill:#06818e;fill-rule:evenodd"/><path d="M500,200a100,100,0,0,1,0,200H400V300A100,100,0,0,1,500,200Z" style="fill:#16a3b2;fill-rule:evenodd"/><path d="M400,400H200a100,100,0,0,1,200,0Z" style="fill:#06818e;fill-rule:evenodd"/><rect x="800" y="400" width="200" height="200" style="fill:#fff"/><path d="M0,400H200V500A100,100,0,0,1,0,500Z" style="fill:#ffc641;fill-rule:evenodd"/><rect x="800" y="200" width="200" height="200" style="fill:#fe5e33"/><path d="M800,200H900A100,100,0,1,1,800,300Z" style="fill:#111747;fill-rule:evenodd"/><path d="M800,200A100,100,0,0,1,800,0Z" style="fill:#16a3b2;fill-rule:evenodd"/><path d="M1000,400h100a100,100,0,0,1,0,200H1000Z" style="fill:#16a3b2;fill-rule:evenodd"/><path d="M1000,600a100,100,0,0,1,0-200Z" style="fill:#16a3b2;fill-rule:evenodd"/><rect x="600" y="400" width="200" height="200" style="fill:#ffc641"/><path d="M700,200H800V400H700a100,100,0,0,1,0-200Z" style="fill:#ff87a2;fill-rule:evenodd"/><path d="M600,0A100,100,0,0,1,700,100,100,100,0,0,1,600,0Z" style="fill:#16a3b2;fill-rule:evenodd"/><path d="M1000,200A100,100,0,0,1,900,300,100,100,0,0,1,1000,200Z" style="fill:#ffc641;fill-rule:evenodd"/><path d="M400,607A100,100,0,0,1,300,707,100,100,0,0,1,400,607Z" style="fill:#ffc641;fill-rule:evenodd"/><path d="M600,0A100,100,0,0,1,500,100,100,100,0,0,1,600,0Z" style="fill:#fff;fill-rule:evenodd"/><path d="M550,586.58a100,100,0,0,1,0-173.25,100,100,0,0,1,0,173.25Z" style="fill:#111747;fill-rule:evenodd"/><rect y="400" width="200" height="200" style="fill:#16a3b2"/><path d="M1100,50a50,50,0,1,1-50,50A50,50,0,0,1,1100,50Z" style="fill:#ffc641;fill-rule:evenodd"/><path d="M300,450a50,50,0,1,1-50,50h0A50,50,0,0,1,300,450Z" style="fill:#fe5e33;fill-rule:evenodd"/><path d="M500,250a50,50,0,1,1-50,50,50,50,0,0,1,50-50Z" style="fill:#fe5e33;fill-rule:evenodd"/><path d="M700,250a50,50,0,1,1-50,50,50,50,0,0,1,50-50Z" style="fill:#16a3b2;fill-rule:evenodd"/><path d="M1106,250a50,50,0,1,1-50,50,50,50,0,0,1,50-50Z" style="fill:#fe5e33;fill-rule:evenodd"/><path d="M1100,450a50,50,0,1,1-50,50h0A50,50,0,0,1,1100,450Z" style="fill:#fe5e33;fill-rule:evenodd"/><path d="M700,699.91a100,100,0,0,1-100-100A100,100,0,0,1,700,699.91Z" style="fill:#111747;fill-rule:evenodd"/><path d="M1000,600A100,100,0,0,1,900,700,100,100,0,0,1,1000,600ZM800,800A100,100,0,0,1,900,700h0A100,100,0,0,1,800,800ZM900,700A100,100,0,0,1,800,600,100,100,0,0,1,900,700Zm0,0a100,100,0,0,1,100,100h0A100,100,0,0,1,900,700Z" style="fill:#16a3b2;fill-rule:evenodd"/><path d="M500,300A100,100,0,0,1,400,400,100,100,0,0,1,500,300Z" style="fill:#06818e;fill-rule:evenodd"/><path d="M200,300A100,100,0,0,1,100,400,100,100,0,0,1,200,300ZM0,500A100,100,0,0,1,100,400h0A100,100,0,0,1,0,500ZM100,400A100,100,0,0,1,0,300,100,100,0,0,1,100,400Zm0,0A100,100,0,0,1,200,500h0A100,100,0,0,1,100,400Z" style="fill:#111747;fill-rule:evenodd"/><path d="M300,100A100,100,0,0,1,200,200,100,100,0,0,1,300,100Z" style="fill:#ffc641;fill-rule:evenodd"/></g></g></svg>